{
    "asset" : {
        "generator" : "Khronos glTF Blender I/O v3.4.50",
        "version" : "2.0"
    },
    "scene" : 0,
    "scenes" : [
        {
            "name" : "Scene",
            "nodes" : [
                7
            ]
        }
    ],
    "nodes" : [
        {
            "name" : "head",
            "rotation" : [
                0.027358166873455048,
                -0.009418671950697899,
                0.175379678606987,
                0.9840757250785828
            ],
            "scale" : [
                1,
                1.0000001192092896,
                1
            ],
            "translation" : [
                -9.216368198394775e-06,
                114.0706787109375,
                1.0132789611816406e-06
            ]
        },
        {
            "children" : [
                0
            ],
            "name" : "neck",
            "rotation" : [
                0.038446519523859024,
                0.03217225521802902,
                0.1432437002658844,
                0.9884169697761536
            ],
            "scale" : [
                1,
                1,
                0.9999998807907104
            ],
            "translation" : [
                8.642673492431641e-07,
                123.9566421508789,
                -8.344650268554688e-07
            ]
        },
        {
            "children" : [
                1
            ],
            "name" : "spine",
            "rotation" : [
                0.025425702333450317,
                -0.02029506489634514,
                0.07860123366117477,
                0.9963752031326294
            ],
            "scale" : [
                1,
                1,
                0.9999999403953552
            ],
            "translation" : [
                48.72809982299805,
                28.000808715820312,
                -13.498844146728516
            ]
        },
        {
            "name" : "leg_r",
            "rotation" : [
                -0.24972304701805115,
                -0.22319640219211578,
                0.8501131534576416,
                0.4063611626625061
            ],
            "scale" : [
                1.0000001192092896,
                1.0000001192092896,
                1.0000001192092896
            ],
            "translation" : [
                25.040599822998047,
                48.4617805480957,
                -50.9764289855957
            ]
        },
        {
            "name" : "leg_l",
            "rotation" : [
                0.17730030417442322,
                0.40457621216773987,
                0.8910365104675293,
                0.10457848012447357
            ],
            "scale" : [
                1,
                0.9999997615814209,
                0.9999998807907104
            ],
            "translation" : [
                21.305891036987305,
                55.9752197265625,
                44.53841018676758
            ]
        },
        {
            "children" : [
                2,
                3,
                4
            ],
            "name" : "root"
        },
        {
            "mesh" : 0,
            "name" : "shark",
            "skin" : 0
        },
        {
            "children" : [
                6,
                5
            ],
            "name" : "shark_rig"
        }
    ],
    "materials" : [
        {
            "doubleSided" : true,
            "name" : "shark_mat",
            "pbrMetallicRoughness" : {
                "baseColorFactor" : [
                    0.800000011920929,
                    0.800000011920929,
                    0.800000011920929,
                    1
                ],
                "metallicFactor" : 0,
                "roughnessFactor" : 0.5
            }
        }
    ],
    "meshes" : [
        {
            "name" : "shark_geo",
            "primitives" : [
                {
                    "attributes" : {
                        "POSITION" : 0,
                        "TEXCOORD_0" : 1,
                        "NORMAL" : 2,
                        "JOINTS_0" : 3,
                        "WEIGHTS_0" : 4
                    },
                    "indices" : 5,
                    "material" : 0
                }
            ]
        }
    ],
    "skins" : [
        {
            "inverseBindMatrices" : 6,
            "joints" : [
                5,
                2,
                1,
                0,
                3,
                4
            ],
            "name" : "shark_rig"
        }
    ],
    "accessors" : [
        {
            "bufferView" : 0,
            "componentType" : 5126,
            "count" : 6924,
            "max" : [
                115.60164642333984,
                355.6385498046875,
                144.54165649414062
            ],
            "min" : [
                -148.99786376953125,
                -41.807254791259766,
                -137.3500213623047
            ],
            "type" : "VEC3"
        },
        {
            "bufferView" : 1,
            "componentType" : 5126,
            "count" : 6924,
            "type" : "VEC2"
        },
        {
            "bufferView" : 2,
            "componentType" : 5126,
            "count" : 6924,
            "type" : "VEC3"
        },
        {
            "bufferView" : 3,
            "componentType" : 5121,
            "count" : 6924,
            "type" : "VEC4"
        },
        {
            "bufferView" : 4,
            "componentType" : 5126,
            "count" : 6924,
            "type" : "VEC4"
        },
        {
            "bufferView" : 5,
            "componentType" : 5123,
            "count" : 6924,
            "type" : "SCALAR"
        },
        {
            "bufferView" : 6,
            "componentType" : 5126,
            "count" : 6,
            "type" : "MAT4"
        }
    ],
    "bufferViews" : [
        {
            "buffer" : 0,
            "byteLength" : 83088,
            "byteOffset" : 0,
            "target" : 34962
        },
        {
            "buffer" : 0,
            "byteLength" : 55392,
            "byteOffset" : 83088,
            "target" : 34962
        },
        {
            "buffer" : 0,
            "byteLength" : 83088,
            "byteOffset" : 138480,
            "target" : 34962
        },
        {
            "buffer" : 0,
            "byteLength" : 27696,
            "byteOffset" : 221568,
            "target" : 34962
        },
        {
            "buffer" : 0,
            "byteLength" : 110784,
            "byteOffset" : 249264,
            "target" : 34962
        },
        {
            "buffer" : 0,
            "byteLength" : 13848,
            "byteOffset" : 360048,
            "target" : 34963
        },
        {
            "buffer" : 0,
            "byteLength" : 384,
            "byteOffset" : 373896
        }
    ],
    "buffers" : [
        {
            "byteLength" : 374280,
            "uri" : "data:application/octet-stream;base64,"
        }
    ]
}
